<?xml version="1.0" encoding="UTF-8"?>
<svg id="Capa_1" data-name="Capa 1" xmlns="http://www.w3.org/2000/svg" version="1.1" viewBox="0 0 19.2 19.2">
  <defs>
    <style>
      .cls-1 {
        fill: #fff;
      }

      .cls-1, .cls-2 {
        stroke-width: 0px;
      }

      .cls-2 {
        fill: #cc4b4e;
      }
    </style>
  </defs>
  <circle class="cls-2" cx="9.6" cy="9.6" r="9.6"/>
  <g id="Layer_1" data-name="Layer 1">
    <g>
      <path class="cls-1" d="M15.7,5.6c-.1-.2-.3-.2-.5-.2H5.4v-.8c-.2-.3-.5-.6-.8-.6h-1.6c-.4,0-.7.3-.7.7s.3.7.7.7h1l1.3,7.8h0v.2h8.1c.4,0,.7-.3.7-.7s-.3-.7-.7-.7h-7.1v-.7c0,0,7.8,0,7.8,0,.4,0,.6-.3.7-.6l.7-4.9c0-.2,0-.4-.2-.6l.4.4ZM14.3,6.8l-.2,1.4h-2.5v-1.4s2.7,0,2.7,0ZM10.9,6.8v1.4h-2.1v-1.4s2.1,0,2.1,0ZM10.9,8.9v1.4h-2.1v-1.4h2.1ZM8.1,6.8v1.4h-2.2l-.2-1.4h2.5-.1ZM6,8.9h2.1v1.4h-1.9s-.2-1.4-.2-1.4ZM11.6,10.3v-1.4h2.4l-.2,1.4h-2.2Z"/>
      <circle class="cls-1" cx="7" cy="15.6" r="1.1"/>
      <circle class="cls-1" cx="13.4" cy="15.6" r="1.1"/>
    </g>
  </g>
</svg>