<?xml version="1.0" encoding="UTF-8"?>
<svg id="Capa_2" data-name="Capa 2" xmlns="http://www.w3.org/2000/svg" viewBox="0 0 500 500">
  <defs>
    <style>
      .cls-1 {
        fill: #fff;
      }

      .cls-1, .cls-2 {
        stroke-width: 0px;
      }

      .cls-2 {
        fill: #cc4b4e;
      }
    </style>
  </defs>
  <g id="katman_1" data-name="katman 1">
    <circle class="cls-2" cx="250" cy="250" r="250"/>
    <path class="cls-1" d="M130.4,190.2v209.29c0,16.44,13.45,29.9,29.9,29.9h179.39c16.44,0,29.9-13.45,29.9-29.9v-209.29h-239.19ZM220.1,354.65c0,8.37-6.58,14.95-14.95,14.95s-14.95-6.58-14.95-14.95v-104.65c0-8.37,6.58-14.95,14.95-14.95s14.95,6.58,14.95,14.95v104.65ZM309.8,354.65c0,8.37-6.58,14.95-14.95,14.95s-14.95-6.58-14.95-14.95v-104.65c0-8.37,6.58-14.95,14.95-14.95s14.95,6.58,14.95,14.95v104.65ZM309.8,160.3h-119.6v-59.8c0-16.44,13.45-29.9,29.9-29.9h59.8c16.44,0,29.9,13.45,29.9,29.9v59.8Z"/>
  </g>
</svg>