<?xml version="1.0" encoding="UTF-8"?>
<svg id="Capa_2" data-name="Capa 2" xmlns="http://www.w3.org/2000/svg" viewBox="0 0 612 612">
  <defs>
    <style>
      .cls-1 {
        fill: #2c5c8f;
        stroke-width: 0px;
      }
    </style>
  </defs>
  <g id="Capa_1-2" data-name="Capa 1">
    <path class="cls-1" d="M315.79,347.62l27.54,27.54-41,12.85,13.46-40.39ZM612,306c0,28.15-3.67,55.28-11.02,81.4-7.35,26.11-17.65,50.49-30.91,73.13-13.26,22.64-29.17,43.25-47.74,61.81-18.56,18.56-39.17,34.48-61.81,47.74-22.65,13.26-47.02,23.56-73.14,30.91-26.11,7.34-53.24,11.02-81.39,11.02s-55.28-3.67-81.4-11.02c-26.11-7.35-50.49-17.65-73.13-30.91s-43.25-29.17-61.81-47.74c-18.56-18.56-34.48-39.17-47.74-61.81-13.26-22.65-23.56-47.02-30.91-73.14-7.34-26.11-11.02-53.24-11.02-81.39s3.67-55.28,11.02-81.4c7.34-26.11,17.65-50.49,30.91-73.13s29.17-43.25,47.74-61.81,39.17-34.48,61.81-47.74,47.02-23.56,73.13-30.91S277.85,0,306,0c42.02,0,81.7,8.06,119.03,24.17,37.33,16.12,69.77,37.94,97.31,65.48,27.54,27.54,49.37,59.98,65.48,97.31s24.17,77.01,24.17,119.03ZM494.5,252.76c0-1.63-.82-3.26-2.45-4.9l-48.96-49.57c-3.67-2.86-6.94-2.86-9.79,0l-4.9,4.9v-77.11c0-6.53-3.27-9.79-9.79-9.79h-146.88l-.61-.61h-18.97c-.41,0-.61.2-.61.61h-2.45v1.22l-75.28,73.44c0,.41-.2.82-.61,1.22v275.4c0,6.52,3.26,9.79,9.79,9.79h235.62c6.52,0,9.79-3.47,9.79-10.4v-95.47c0-2.04-.41-3.57-1.23-4.59-.81-1.02-2.24-.51-4.28,1.53l-4.9,4.9c-2.04,2.04-4.79,4.59-8.26,7.65-3.47,3.06-8.06,7.45-13.77,13.16v50.8h-190.94v-227.66h66.1c2.45,0,3.67-1.22,3.67-3.67v-64.87h121.18v86.9l-95.47,95.47c-.41.41-1.02,1.43-1.84,3.06l-23.87,72.83c-.82,2.45-.2,4.69,1.84,6.73,1.22,1.63,2.86,2.45,4.9,2.45.41,0,.71-.1.92-.31.2-.2.51-.31.92-.31l73.44-23.87c.82,0,1.84-.61,3.06-1.84l132.19-132.19c1.63-1.63,2.45-3.26,2.45-4.89Z"/>
  </g>
</svg>